<svg xmlns="http://www.w3.org/2000/svg" width="20" height="20" viewBox="0 0 20 20">
  <path id="call" d="M138.833-820a16.677,16.677,0,0,1-6.861-1.514,20.526,20.526,0,0,1-6.167-4.292,20.525,20.525,0,0,1-4.292-6.167A16.679,16.679,0,0,1,120-838.833a1.131,1.131,0,0,1,.333-.833,1.131,1.131,0,0,1,.833-.333h4.5a1.033,1.033,0,0,1,.694.264,1.016,1.016,0,0,1,.361.625l.722,3.889a1.959,1.959,0,0,1-.028.75,1.168,1.168,0,0,1-.306.528l-2.694,2.722a13.427,13.427,0,0,0,1.319,1.986,19.525,19.525,0,0,0,1.681,1.847,19.5,19.5,0,0,0,1.806,1.6,17.566,17.566,0,0,0,2,1.347l2.611-2.611a1.556,1.556,0,0,1,.653-.375,1.789,1.789,0,0,1,.792-.07l3.833.778a1.284,1.284,0,0,1,.639.4.978.978,0,0,1,.25.653v4.5a1.131,1.131,0,0,1-.333.833A1.131,1.131,0,0,1,138.833-820Zm-15.472-13.333,1.833-1.833-.472-2.611H122.25q.139,1.139.389,2.25A12.17,12.17,0,0,0,123.361-833.333Zm9.944,9.944a13.794,13.794,0,0,0,2.208.75,13.548,13.548,0,0,0,2.264.361v-2.444l-2.611-.528ZM123.361-833.333ZM133.306-823.389Z" transform="translate(-120 840)" fill="#fff"/>
</svg>
