<?xml version="1.0" encoding="UTF-8"?>
<svg id="Ebene_2" xmlns="http://www.w3.org/2000/svg" version="1.1" viewBox="0 0 113.2 139.8">
  <!-- Generator: Adobe Illustrator 29.5.1, SVG Export Plug-In . SVG Version: 2.1.0 Build 141)  -->
  <defs>
    <style>
      .st0 {
        fill: #fff;
      }
    </style>
  </defs>
  <g id="Ebene_1-2">
    <g>
      <path class="st0" d="M98.8,40.8c-2.1,6.1-3.7,10.2-7.3,18.1-7,15.1-16,29.3-26.7,42.1-.9,1.1-2.3,1.8-3.8,1.8-1.5,0-2.8-.6-3.8-1.7l-15.7-17.8c-2.5,8.6-5.9,17-10.2,24.9-6.1,11.2-13.8,21.4-22.9,30.2-2,1.9-5.2,1.9-7.1-.1-1.9-2-1.9-5.1.1-7.1,8.4-8.2,15.5-17.5,21.1-27.8,5.4-9.9,9.2-20.6,11.5-31.6.4-1.9,1.8-3.3,3.6-3.8,1.8-.5,3.8,0,5,1.5l18.1,20.6c8.5-10.9,15.8-22.8,21.6-35.3,7-15.1,11.9-31.2,14.6-47.7.3-1.8,1-2.9,1.9-3.5,1.4-1,3-.8,3.4-.7,2.2.4,4,2.3,4.6,4.9-.4,2.5-1,5.9-1.8,9.9-2,9.7-4.4,17.6-6.4,23.2h0Z"/>
      <path class="st0" d="M87.7,14.6c-.7-1.4,7.6-18,17-14,9.2,4,9,23.5,8.1,24-.7.4-2.3-11.6-8.8-15-7.4-3.8-15.6,6.3-16.2,5h0Z"/>
    </g>
  </g>
</svg>