<?xml version="1.0" encoding="UTF-8"?>
<svg id="Ebene_1" xmlns="http://www.w3.org/2000/svg" version="1.1" viewBox="0 0 800 800">
  <!-- Generator: Adobe Illustrator 29.5.1, SVG Export Plug-In . SVG Version: 2.1.0 Build 141)  -->
  <defs>
    <style>
      .st0 {
        fill: #fff;
      }
    </style>
  </defs>
  <path class="st0" d="M723.3,427.3c13.3,13.3,13.3,34.9,0,48.2l-51.5,51.6-119.6-119.6,51.6-51.6c13.3-13.3,34.8-13.3,48.1,0l71.5,71.5ZM324.6,76.7l-51.6,51.5,119.7,119.6,51.5-51.6c13.3-13.3,13.3-34.8,0-48.1,0,0,0,0,0,0l-71.5-71.5c-13.3-13.3-34.8-13.3-48.1,0,0,0,0,0,0,0ZM149.3,650.7c110.1,110.1,288.6,110.1,398.7,0h0c0,0,75.6-75.7,75.6-75.7l-119.6-119.6-75.6,75.6c-44.8,43.3-116.2,42.1-159.5-2.7-42.2-43.7-42.2-113.1,0-156.8l75.6-75.6-119.6-119.6-75.6,75.6c-110.1,110.1-110.1,288.6,0,398.7,0,0,0,0,0,0Z"/>
</svg>