<svg xmlns="http://www.w3.org/2000/svg" width="200" height="200" viewBox="0 0 200 200">
  <g id="Ebene_1" data-name="Ebene 1" transform="translate(0 0.004)">
    <g id="Gruppe_10" data-name="Gruppe 10" transform="translate(0 -0.004)">
      <rect id="Rechteck_4" data-name="Rechteck 4" width="200" height="200" fill="#1d341a"/>
      <g id="Gruppe_9" data-name="Gruppe 9" transform="translate(29.479 68.769)">
        <path id="Pfad_14" data-name="Pfad 14" d="M123.727,228.455a1.994,1.994,0,0,1-1.89-1.35,172.847,172.847,0,0,1-6.468-24.656c-.923-4.994-1.622-10.051-2.1-15.124a77.544,77.544,0,0,1-2.912,7.215,76.5,76.5,0,0,1-10.666,16.818,2,2,0,0,1-1.506.719,2.023,2.023,0,0,1-1.526-.679L90.4,204.282a49.724,49.724,0,0,1-13.219,22.012,2,2,0,0,1-2.776-2.872,45.778,45.778,0,0,0,13.015-23.733,2,2,0,0,1,3.456-.919l7.223,8.209a72.57,72.57,0,0,0,14.473-33.173,2,2,0,0,1,3.967.284,168.124,168.124,0,0,0,9.08,51.717,1.993,1.993,0,0,1-1.242,2.537,2.036,2.036,0,0,1-.647.108Z" transform="translate(-73.793 -172.126)" fill="#f2f2f1"/>
        <g id="Gruppe_8" data-name="Gruppe 8" transform="translate(56.929 7.1)">
          <g id="Gruppe_6" data-name="Gruppe 6" transform="translate(0)">
            <path id="Pfad_15" data-name="Pfad 15" d="M233.777,216.319V227.6h-4.251V225.26c-1.083,1.658-3.172,2.6-6.056,2.6-4.394,0-7.171-2.413-7.171-5.765s2.161-5.729,8-5.729h4.974v-.288c0-2.629-1.586-4.179-4.794-4.179a9.518,9.518,0,0,0-5.836,1.91l-1.766-3.28a13.528,13.528,0,0,1,8.145-2.377c5.549,0,8.757,2.633,8.757,8.181Zm-4.506,5.265v-2.233h-4.65c-3.064,0-3.891,1.155-3.891,2.561,0,1.622,1.37,2.665,3.675,2.665A4.818,4.818,0,0,0,229.271,221.585Z" transform="translate(-216.3 -200.859)" fill="#f2f2f1"/>
            <path id="Pfad_16" data-name="Pfad 16" d="M285.608,208.124v4.286a5.712,5.712,0,0,0-1.047-.108c-3.424,0-5.585,2.017-5.585,5.944v9.332H274.47V208.336h4.286v2.812c1.3-2.017,3.639-3.028,6.847-3.028Z" transform="translate(-251.232 -200.841)" fill="#f2f2f1"/>
            <path id="Pfad_17" data-name="Pfad 17" d="M319.768,208.388l-3.352,3.172v5.081H311.91V189.9h4.506v16.143l9.332-8.649h5.405l-8.038,8.074,8.793,11.17h-5.477l-6.667-8.253Z" transform="translate(-273.715 -189.9)" fill="#f2f2f1"/>
            <path id="Pfad_18" data-name="Pfad 18" d="M382.927,219.407h-15.1c.539,2.812,2.884,4.614,6.236,4.614a6.9,6.9,0,0,0,5.225-2.089l2.413,2.776c-1.73,2.053-4.434,3.136-7.75,3.136-6.452,0-10.63-4.147-10.63-9.875a9.571,9.571,0,0,1,9.947-9.839c5.733,0,9.731,3.927,9.731,9.947,0,.359-.036.9-.072,1.334Zm-15.136-2.988h10.918a5.236,5.236,0,0,0-5.441-4.686A5.292,5.292,0,0,0,367.79,216.419Z" transform="translate(-304.588 -200.847)" fill="#f2f2f1"/>
          </g>
          <g id="Gruppe_7" data-name="Gruppe 7" transform="translate(0.232 29.973)">
            <path id="Pfad_19" data-name="Pfad 19" d="M226.228,266.62v11.186h-1.166v-5.161h-7v5.161H216.88V266.62h1.182v4.986h7V266.62Z" transform="translate(-216.88 -265.945)" fill="#f2f2f1"/>
            <path id="Pfad_20" data-name="Pfad 20" d="M254.087,276.67v5.209H253v-1.31a3.156,3.156,0,0,1-2.892,1.39c-1.9,0-3.068-.991-3.068-2.445,0-1.294.831-2.381,3.244-2.381h2.669v-.511c0-1.438-.815-2.221-2.381-2.221a4.282,4.282,0,0,0-2.8.991l-.511-.847a5.337,5.337,0,0,1,3.42-1.135C252.856,273.41,254.087,274.5,254.087,276.67Zm-1.135,2.685V277.98h-2.637c-1.63,0-2.157.639-2.157,1.5,0,.975.783,1.582,2.125,1.582A2.635,2.635,0,0,0,252.952,279.354Z" transform="translate(-234.992 -270.022)" fill="#f2f2f1"/>
            <path id="Pfad_21" data-name="Pfad 21" d="M280.134,277.005v4.874H279v-4.762c0-1.774-.927-2.685-2.525-2.685a2.756,2.756,0,0,0-2.94,3.036v4.41H272.4v-8.405h1.087v1.55a3.532,3.532,0,0,1,3.2-1.614C278.728,273.41,280.134,274.592,280.134,277.005Z" transform="translate(-250.221 -270.022)" fill="#f2f2f1"/>
            <path id="Pfad_22" data-name="Pfad 22" d="M305.957,264.934v11.853H304.87v-1.662a3.641,3.641,0,0,1-3.244,1.742,4.275,4.275,0,0,1,0-8.549,3.671,3.671,0,0,1,3.2,1.662V264.93h1.135Zm-1.119,7.65a3.127,3.127,0,1,0-3.116,3.276A3.074,3.074,0,0,0,304.838,272.584Z" transform="translate(-265.258 -264.93)" fill="#f2f2f1"/>
            <path id="Pfad_23" data-name="Pfad 23" d="M336.83,273.58l-3.18,8.405H332.58l-2.653-6.887-2.653,6.887H326.2l-3.164-8.405h1.087l2.637,7.143,2.7-7.143h.975l2.684,7.143,2.669-7.143Z" transform="translate(-280.631 -270.124)" fill="#f2f2f1"/>
            <path id="Pfad_24" data-name="Pfad 24" d="M367.285,278.028h-7.031a3.111,3.111,0,0,0,3.308,2.924,3.313,3.313,0,0,0,2.573-1.1l.639.735a4.444,4.444,0,0,1-7.654-2.908,4.048,4.048,0,0,1,4.107-4.266,4.005,4.005,0,0,1,4.075,4.266C367.3,277.772,367.285,277.9,367.285,278.028Zm-7.027-.847h5.96a2.986,2.986,0,0,0-5.96,0Z" transform="translate(-302.297 -270.022)" fill="#f2f2f1"/>
            <path id="Pfad_25" data-name="Pfad 25" d="M389.635,273.42v1.1c-.1,0-.192-.016-.272-.016-1.758,0-2.828,1.119-2.828,3.1v4.282H385.4v-8.405h1.087v1.646A3.17,3.17,0,0,1,389.635,273.42Z" transform="translate(-318.079 -270.028)" fill="#f2f2f1"/>
            <path id="Pfad_26" data-name="Pfad 26" d="M404.236,272.574l-1.981,1.822v2.4H401.12V264.94h1.135v8.038l5.018-4.586h1.406l-3.6,3.436,3.931,4.97h-1.39l-3.388-4.219Z" transform="translate(-327.519 -264.936)" fill="#f2f2f1"/>
          </g>
        </g>
      </g>
    </g>
  </g>
</svg>
